<svg id="Camada_1" data-name="Camada 1" xmlns="http://www.w3.org/2000/svg" viewBox="0 0 1024 1024"><defs><style>.cls-1{fill:#8468a3;}.cls-2{opacity:0.6;}.cls-3{fill:#402983;}</style></defs><title>h blank</title><path class="cls-1" d="M606.81,790.33a78.24,78.24,0,0,1,78.24-78.23h0v-109c0-.23,0-.45,0-.68C684.62,447.07,517.29,348,376.92,417.87V213.07a58.11,58.11,0,1,0-116.21,0v597.5h0c0,.12,0,.24,0,.36a58.11,58.11,0,1,0,116.21,0c0-.12,0-.24,0-.36h0V603.13a87,87,0,0,1,7.29-35c39.32-90.31,184.6-67.15,184.64,35v208h0a58.1,58.1,0,0,0,85.36,51.17A78.26,78.26,0,0,1,606.81,790.33Z"/><path class="cls-1" d="M685.06,712.1v99h0a58.08,58.08,0,0,1-30.84,51.17A78.24,78.24,0,1,0,685.06,712.1Z"/><g class="cls-2"><polygon class="cls-3" points="376.92 417.41 376.92 417.41 376.92 417.41 376.92 417.41"/><path class="cls-3" d="M297.53,485.74a203.87,203.87,0,0,0-36.81,116.92,58.1,58.1,0,1,0,116.2,0V417.41A211.75,211.75,0,0,0,297.53,485.74Z"/><path class="cls-3" d="M606.82,789.87a78.24,78.24,0,0,1,78.23-78.24v-109h-.55c0-.22,0-.44,0-.67h.57c-.43-155.38-167.76-254.46-308.13-184.58V602.66a87,87,0,0,1,7.29-35c39.33-90.32,184.6-67.16,184.64,35h0v208h0a58.1,58.1,0,0,0,85.36,51.16A78.25,78.25,0,0,1,606.82,789.87Z"/></g></svg>